<svg width="48" height="48" viewBox="0 0 48 48" fill="none" xmlns="http://www.w3.org/2000/svg">
<g clip-path="url(#clip0_18206_75817)">
<path d="M0 48V0H48V48H0Z" fill="white"/>
<path d="M14.8281 11C14.8281 9.89543 15.7236 9 16.8281 9H27.4948C31.729 9 35.1615 12.4325 35.1615 16.6667V25C35.1615 29.2342 31.729 32.6667 27.4948 32.6667H16.8281C15.7236 32.6667 14.8281 31.7712 14.8281 30.6667V11Z" fill="#51C37E"/>
<path d="M19.5 13.6719H27.5C29.1569 13.6719 30.5 15.015 30.5 16.6719V25.0052C30.5 26.6621 29.1569 28.0052 27.5 28.0052H19.5V13.6719Z" fill="white"/>
<g clip-path="url(#clip1_18206_75817)">
<path d="M-1.16406 47.6409V39.6764C-1.16406 39.3 -0.865792 39 -0.504425 39L8.99434 39.0101C14.0936 39.0101 14.966 43.1512 15.161 48.3334L-0.504425 48.3232C-0.871528 48.3232 -1.16406 48.0174 -1.16406 47.6468" fill="#51C37E"/>
<path d="M49.5 47.6409V39.6764C49.5 39.3 49.2017 39 48.8404 39L20.8328 39.0113C15.7335 39.0113 14.8612 43.1524 14.6661 48.3346L48.8404 48.3232C49.2075 48.3232 49.5 48.0174 49.5 47.6468" fill="#51C37E"/>
</g>
</g>
<defs>
<clipPath id="clip0_18206_75817">
<rect width="48" height="48" fill="white"/>
</clipPath>
<clipPath id="clip1_18206_75817">
<rect width="48.3333" height="9.33333" fill="white" transform="translate(0 39)"/>
</clipPath>
</defs>
</svg>
